<svg xmlns="http://www.w3.org/2000/svg" width="91.37" height="78.97" viewBox="0 0 91.37 78.97">
  <defs>
    <style>
      .cls-1 {
        fill: #fff;
        fill-rule: evenodd;
      }
    </style>
  </defs>
  <g id="Layer_2" data-name="Layer 2">
    <g id="Layer_1-2" data-name="Layer 1">
      <path class="cls-1" d="M0,27.15a2.51,2.51,0,0,1,1.17.38C7.74,31.29,14.34,35,20.92,38.71c.37.21.72.46,1.21.78a11.55,11.55,0,0,1-1,.73Q11,45.89,1,51.55l-.43.21a2.31,2.31,0,0,1-.52.06V79H.61c.41-.28.72-.52,1-.72l.36-.2c6.55-3.68,13.11-7.34,19.64-11a2.55,2.55,0,0,1,1.06-.37,2.18,2.18,0,0,1,1.07.31c6.64,3.81,13.32,7.55,20,11.32.32.19.63.41,1.08.7h1.44l0,0a9.6,9.6,0,0,1,.92-.71q10.08-5.67,20.16-11.35l.33-.16a1.84,1.84,0,0,1,1.18-.09,2.21,2.21,0,0,1,.37.15C76,70.66,82.81,74.49,89.6,78.34a10.5,10.5,0,0,1,.87.63h.9V51.83l-.1,0a1.93,1.93,0,0,1-.89-.27c-6.74-3.85-13.5-7.65-20.24-11.47-.27-.15-.53-.34-1-.63.39-.27.69-.5,1-.69l.4-.23q9.24-5.19,18.48-10.39l1.19-.67a2.67,2.67,0,0,1,1-.35h.06V0h-.62c-.51.34-.84.6-1.2.81C82.91,4.55,76.26,8.26,69.63,12a2.73,2.73,0,0,1-.81.31,2.07,2.07,0,0,1-.7,0,2.49,2.49,0,0,1-.49-.21Q57.52,6.32,47.38.61A10,10,0,0,1,46.52,0H44.87a4,4,0,0,1-.69.56Q34,6.31,23.76,12.05l-.3.14a2.14,2.14,0,0,1-1.32,0Q11.72,6.2,1.26.29A3.31,3.31,0,0,1,.89,0H0ZM69,14.84a2.23,2.23,0,0,1,1.25-2.2C76.72,8.88,83.13,5.07,89.56,1.28l.67-.39L91,.53A12,12,0,0,1,91,1.86c-.08,7.61-.18,15.21-.25,22.82a1.89,1.89,0,0,1-1,1.91c-6.74,3.93-13.45,7.91-20.18,11.86a7.89,7.89,0,0,1-.81.39c0-.64,0-1.06,0-1.48C68.87,29.86,69,22.35,69,14.84Zm0,25.35a5.07,5.07,0,0,1,.77.34q10,5.92,20,11.86a1.53,1.53,0,0,1,.9,1.49c0,7.91.14,15.82.2,23.73a5.35,5.35,0,0,1-.07.79c-.36-.19-.71-.4-1.07-.6L69,65.49c-.08-8.44-.16-16.8-.23-25.37ZM67.91,64.43A1.7,1.7,0,0,1,67,66.08q-10.23,6-20.43,12c-.14.08-.31.15-.54.26a9.38,9.38,0,0,1-.13-1.07Q46,65.67,46.15,54a1.56,1.56,0,0,1,.79-1.57c6.9-4,13.78-8.12,20.67-12.18h0a4.68,4.68,0,0,1,.44-.17c0,.49.07.86.07,1.22C68.07,49,68,56.72,67.91,64.43ZM50.8,3.27,67,12.87c.41.26.72.47.94.63q.11,12.59.23,25.17c-.82-.32-4.08-2.12-7.86-4.29L49.43,27.93C48,27,46.82,26.29,46.25,25.88,46.18,17.66,46.1,9.36,46,.73,46.45.86,48.31,1.86,50.8,3.27ZM46.62,27.38C53.31,31.21,60,35,66.73,38.77c.29.17.56.36,1,.63a7.94,7.94,0,0,1-.82.63q-10.22,5.74-20.41,11.5a2.92,2.92,0,0,1-.36.17A2.19,2.19,0,0,1,45,51.65c-.07,0-.14,0-.22-.1Q34.51,45.73,24.25,40c-.19-.11-.37-.26-.75-.53.32-.23.55-.42.79-.57l.37-.21,20-11.23a2.3,2.3,0,0,1,.93-.32A1.9,1.9,0,0,1,46.62,27.38ZM23.4,14.63a2.86,2.86,0,0,1,.16-1l.12-.2a.6.6,0,0,1,.09-.13,1.86,1.86,0,0,1,.19-.22,2.21,2.21,0,0,1,.37-.27C31.07,8.9,37.79,4.92,44.51,1L45,.7l.32-.14,0,.13c0,.54,0,.94,0,1.33-.08,7.56-.18,15.12-.25,22.69a2,2,0,0,1-1.06,2c-6.62,3.86-13.21,7.78-19.81,11.67-.29.17-.61.32-1,.52a9.19,9.19,0,0,1-.13-1.15C23.23,30.05,23.33,22.34,23.4,14.63Zm-.26,25.42a9.78,9.78,0,0,1,1,.46q9.95,5.9,19.9,11.78a1.78,1.78,0,0,1,1,1.72c0,7.75.12,15.51.19,23.27,0,.31,0,.63-.09,1.15-.56-.31-1-.53-1.34-.76C37.41,73.87,31,70,24.56,66.28a2.21,2.21,0,0,1-1.29-2.17c0-7.51-.11-15-.18-22.54C23.09,41.11,23.12,40.66,23.14,40.05Zm-.92,24.24a1.8,1.8,0,0,1-1,1.77Q11.14,72,1.07,77.93c-.22.13-.46.23-.83.4,0-.68,0-1.14,0-1.61C.29,69.26.4,61.8.44,54.34a2.23,2.23,0,0,1,1.24-2.2c4.59-2.67,9.16-5.38,13.73-8.08l6-3.53.43-.25.54-.25a7.71,7.71,0,0,1,.11,1.15C22.38,48.88,22.28,56.58,22.22,64.29ZM.44.45l21.86,13c.08,8.42.16,16.85.24,25.43a4.81,4.81,0,0,1-.85-.31q-10.14-6-20.29-12a1.45,1.45,0,0,1-.86-1.37c0-8-.12-16-.19-24A5.88,5.88,0,0,1,.44.45Z"/>
    </g>
  </g>
</svg>
